<svg
        version="1.0"
        xmlns="http://www.w3.org/2000/svg"
        width="1380.000000pt"
        height="920.000000pt"
        viewBox="0 0 1380.000000 920.000000"
        preserveAspectRatio="xMidYMid meet"
      >
        <g
          transform="translate(0.000000,920.000000) scale(0.100000,-0.100000)"
          fill="#000000"
          stroke="none"
        >
          <path d="M5171 7664 c0 -11 3 -14 6 -6 3 7 2 16 -1 19 -3 4 -6 -2 -5 -13z" />
          <path
            d="M5160 7523 c0 -5 -5 -36 -10 -71 -13 -81 1 -113 75 -166 72 -51 161
-139 226 -221 69 -88 90 -97 194 -80 44 7 103 17 130 20 28 4 44 10 36 13 -8
3 -59 -1 -113 -8 -54 -7 -109 -9 -122 -6 -14 3 -46 32 -71 64 -67 83 -187 202
-255 253 -73 54 -90 86 -83 157 3 28 3 52 -1 52 -3 0 -6 -3 -6 -7z"
          />
          <path
            d="M4521 7392 c-84 -33 -203 -166 -316 -353 -78 -129 -94 -242 -56 -392
79 -307 309 -546 601 -624 93 -25 259 -24 325 1 92 35 323 201 396 283 76 87
95 220 47 323 -80 171 -545 639 -743 747 -64 35 -186 42 -254 15z m100 -238
c10 -13 10 -20 0 -36 -9 -15 -10 -23 0 -34 9 -11 9 -21 2 -37 -8 -16 -8 -29
-1 -42 8 -13 7 -24 -1 -38 -17 -27 0 -43 28 -25 16 9 26 10 38 2 13 -8 23 -8
35 0 14 8 23 7 39 -3 16 -10 23 -10 29 -1 4 6 18 10 31 8 19 -2 24 -9 24 -33
0 -24 -5 -31 -23 -33 -13 -2 -30 2 -38 8 -10 9 -14 9 -14 1 0 -14 -47 -15 -55
-1 -5 8 -11 7 -21 -1 -8 -6 -27 -9 -43 -6 -35 7 -43 1 -28 -24 9 -15 9 -24 -1
-39 -10 -16 -10 -24 0 -40 10 -15 10 -25 2 -37 -8 -13 -8 -23 0 -35 14 -23 -3
-53 -29 -53 -27 0 -43 31 -28 55 7 10 9 22 4 25 -12 7 -11 124 0 131 6 3 5 12
-2 20 -10 13 -14 12 -30 -2 -14 -12 -22 -13 -38 -4 -15 8 -27 8 -42 0 -16 -9
-25 -8 -40 6 -10 9 -19 12 -19 7 0 -17 -30 -24 -51 -13 -42 23 -9 82 34 63 16
-8 29 -8 42 -1 13 8 24 7 37 -1 14 -8 23 -8 38 1 16 10 24 10 40 1 23 -15 35
-1 21 25 -7 14 -6 25 5 40 8 12 11 22 6 22 -16 0 -23 30 -12 50 7 14 7 25 -2
39 -14 23 3 51 32 51 10 0 23 -7 31 -16z m436 -490 c3 -9 1 -25 -6 -35 -8 -15
-8 -24 1 -39 10 -15 10 -25 2 -37 -8 -13 -8 -23 0 -35 8 -13 8 -23 -1 -37 -16
-26 2 -44 28 -28 14 9 24 9 37 1 14 -9 22 -8 37 2 16 12 22 12 42 -1 13 -9 23
-11 23 -5 0 17 48 11 59 -7 20 -37 -27 -71 -57 -41 -10 10 -15 10 -22 -2 -7
-12 -15 -13 -37 -4 -21 8 -34 8 -46 0 -12 -8 -22 -8 -36 1 -27 17 -47 -4 -26
-27 16 -18 11 -50 -8 -50 -5 0 -2 -9 8 -20 16 -18 16 -21 2 -43 -14 -22 -14
-26 1 -41 16 -16 16 -18 -6 -36 -41 -34 -85 11 -49 49 10 11 10 14 0 18 -16 6
-17 35 -2 50 8 8 7 17 -3 32 -10 16 -10 25 -1 40 10 15 9 22 -2 31 -11 9 -15
9 -15 1 0 -14 -47 -14 -56 0 -4 8 -9 8 -17 0 -15 -15 -50 -14 -65 1 -8 8 -12
8 -12 1 0 -21 -31 -22 -50 -3 -16 16 -18 25 -10 40 12 22 40 26 57 9 8 -8 17
-7 32 3 16 9 26 10 38 2 13 -8 23 -8 35 0 14 8 23 7 39 -3 27 -16 43 3 26 31
-9 14 -9 23 0 38 8 12 9 21 3 25 -6 3 -10 17 -10 30 0 13 4 27 10 30 6 4 5 13
-2 24 -16 26 -3 51 27 51 14 0 28 -7 32 -16z"
          />
          <path d="M3113 6215 c0 -38 2 -53 4 -32 2 20 2 52 0 70 -2 17 -4 1 -4 -38z" />
          <path
            d="M4330 6101 c0 -5 -12 -12 -27 -16 -64 -16 -113 -83 -113 -154 0 -16
-7 -35 -17 -42 -20 -18 -43 -71 -43 -103 0 -19 -7 -26 -30 -31 -16 -4 -42 -21
-56 -38 -15 -18 -25 -25 -22 -17 3 11 -17 26 -74 53 -84 39 -98 43 -114 27 -7
-7 -20 1 -40 22 l-29 33 31 -28 c28 -26 44 -27 44 -4 0 6 -3 8 -6 4 -3 -3 -15
3 -27 14 -11 10 -29 19 -39 19 -11 0 -16 5 -13 10 3 6 1 10 -6 10 -7 0 -22 8
-33 18 -16 13 -15 9 5 -18 40 -53 168 -162 182 -154 7 4 9 3 4 -1 -4 -5 14
-21 40 -36 35 -21 51 -25 60 -17 10 8 12 7 8 -3 -7 -21 34 -46 132 -78 120
-40 272 -55 404 -41 116 13 169 28 104 30 -60 1 -212 26 -280 45 -33 10 -76
18 -97 19 -20 0 -34 4 -32 8 2 3 -2 8 -8 10 -7 3 1 5 19 5 40 0 63 18 63 49 0
29 -36 54 -90 61 -37 5 -40 8 -40 37 0 56 13 62 56 29 49 -38 84 -47 111 -28
31 22 33 49 6 84 -23 30 -93 58 -112 46 -12 -7 -18 14 -13 42 5 28 49 73 71
73 10 0 21 -13 26 -32 6 -17 23 -41 38 -52 26 -19 30 -19 55 -5 49 27 41 59
-28 112 -62 49 -70 53 -70 38z m81 -92 c7 -15 6 -19 -5 -19 -13 0 -36 28 -36
44 0 12 31 -8 41 -25z m-91 -155 c25 -24 -14 -18 -41 7 l-24 20 25 -7 c14 -3
32 -12 40 -20z m-447 -108 c-4 -5 1 -7 11 -3 10 4 15 3 11 -3 -8 -13 -18 -13
-39 3 -16 12 -16 13 3 13 11 0 17 -5 14 -10z m315 -65 c27 -23 30 -30 17 -35
-11 -4 -14 -2 -9 6 5 8 2 9 -10 5 -10 -4 -15 -3 -11 3 3 6 -1 10 -9 10 -9 0
-16 -6 -16 -12 0 -7 -11 -1 -24 12 -15 17 -19 27 -12 32 20 14 40 8 74 -21z
m-201 -7 c-3 -3 -12 -4 -19 -1 -8 3 -5 6 6 6 11 1 17 -2 13 -5z m107 -19 c-4
-8 -8 -15 -10 -15 -2 0 -4 7 -4 15 0 8 4 15 10 15 5 0 7 -7 4 -15z m196 -79
c0 -12 -5 -7 -19 24 -11 24 -11 24 3 6 9 -11 16 -24 16 -30z m26 26 c1 -7 0
-8 -3 -2 -2 5 -9 8 -14 4 -5 -3 -9 0 -9 6 0 15 23 7 26 -8z m67 -59 c-7 -2
-19 -2 -25 0 -7 3 -2 5 12 5 14 0 19 -2 13 -5z m185 0 c-10 -2 -28 -2 -40 0
-13 2 -5 4 17 4 22 1 32 -1 23 -4z"
          />
          <path
            d="M3081 5987 c-6 -28 -32 -94 -57 -146 -71 -145 -201 -269 -340 -321
l-25 -10 7 108 c7 118 1 144 -50 191 -37 35 -127 41 -173 12 -64 -40 -65 -46
-84 -370 -10 -163 -20 -332 -23 -377 l-6 -81 78 5 c72 4 81 2 145 -31 42 -21
70 -30 72 -23 2 6 8 117 15 246 6 129 13 245 16 257 3 15 27 34 76 60 130 68
243 193 313 347 32 69 62 173 53 181 -3 3 -10 -19 -17 -48z m-677 -651 c-8
-159 -16 -292 -19 -294 -15 -16 -16 30 -6 245 14 282 20 358 31 346 5 -4 2
-138 -6 -297z"
          />
          <path d="M4808 5773 c7 -3 16 -2 19 1 4 3 -2 6 -13 5 -11 0 -14 -3 -6 -6z" />
          <path
            d="M8642 5710 c-87 -12 -186 -46 -253 -86 -140 -84 -250 -259 -261 -416
-2 -22 -8 -28 -25 -28 -31 0 -34 -36 -31 -365 l3 -280 28 -3 27 -3 0 -115 c0
-292 100 -479 311 -583 262 -129 628 -82 814 104 116 116 165 254 165 473 l0
122 -27 0 -28 0 0 325 c0 299 1 325 17 325 27 0 30 15 13 87 -51 221 -200 370
-426 427 -80 20 -243 28 -327 16z m253 -347 c56 -29 92 -71 115 -131 l20 -52
-26 0 c-22 0 -25 -3 -20 -22 3 -13 6 -159 6 -325 l0 -303 26 0 26 0 -4 -132
c-3 -112 -7 -139 -25 -173 -48 -89 -123 -135 -226 -137 -93 -1 -141 16 -197
70 -63 61 -80 117 -80 264 l0 108 -29 0 -30 0 -1 284 c-1 316 3 366 30 366 11
0 28 22 49 65 53 106 125 147 251 142 51 -3 88 -10 115 -24z m263 -180 c-10
-2 -28 -2 -40 0 -13 2 -5 4 17 4 22 1 32 -1 23 -4z"
          />
          <path
            d="M6964 5690 c-14 -6 -51 -77 -127 -247 -59 -132 -107 -245 -107 -251
0 -7 -11 -12 -25 -12 -18 0 -29 -9 -44 -37 -43 -87 -261 -584 -261 -598 0 -9
9 -15 25 -15 l24 0 3 -122 3 -123 435 -5 435 -5 5 -240 5 -240 185 0 185 0 5
240 5 240 77 3 c51 2 78 7 81 16 3 7 4 62 4 122 l-2 109 -27 3 c-24 3 -28 8
-28 36 0 47 -15 56 -92 56 l-68 0 0 179 c0 140 -3 181 -14 190 -9 8 -68 11
-187 9 l-174 -3 -5 -185 -5 -185 -217 -3 c-120 -1 -218 1 -218 5 0 5 54 131
121 281 92 206 126 272 139 272 10 0 22 6 28 13 15 18 212 465 212 481 0 8 -7
17 -16 20 -24 9 -336 6 -360 -4z m-194 -1154 c0 -2 -13 -6 -30 -8 -16 -3 -30
-1 -30 4 0 4 14 8 30 8 17 0 30 -2 30 -4z m102 -4 c-12 -8 -72 -4 -72 4 0 2
19 4 43 4 25 0 37 -4 29 -8z"
          />
          <path
            d="M10147 5688 c-17 -13 -227 -471 -227 -495 0 -8 -12 -13 -27 -13 -27
0 -33 -12 -165 -310 -76 -170 -138 -316 -138 -325 0 -9 9 -15 25 -15 l24 0 3
-122 3 -123 435 -5 435 -5 5 -240 5 -240 185 0 185 0 5 240 5 240 70 3 c39 2
73 6 77 10 4 4 8 59 9 122 l2 115 -27 3 c-22 3 -26 8 -26 36 0 47 -15 56 -92
56 l-68 0 0 179 c0 140 -3 181 -14 190 -9 8 -68 11 -187 9 l-174 -3 -5 -185
-5 -185 -217 -3 c-120 -1 -218 1 -218 6 0 9 210 483 236 534 8 16 20 25 27 22
8 -3 18 1 24 8 15 19 213 467 213 483 0 22 -25 25 -199 25 -118 0 -172 -4
-184 -12z"
          />
          <path
            d="M5341 5454 c-87 -95 -157 -234 -181 -361 -20 -101 -8 -262 25 -353
51 -139 162 -275 182 -223 4 10 1 19 -8 21 -26 9 -87 83 -122 150 -50 95 -70
179 -69 292 1 185 68 352 196 488 22 23 37 42 34 42 -3 0 -29 -25 -57 -56z"
          />
          <path
            d="M3025 4838 c-52 -18 -205 -149 -205 -175 0 -21 9 -16 77 47 115 105
163 116 333 79 410 -89 781 -215 1136 -385 156 -75 193 -110 217 -207 61 -244
44 -547 -43 -766 -11 -30 -19 -56 -16 -58 11 -12 77 183 102 302 26 122 23
341 -5 475 -38 179 -60 208 -218 281 -399 184 -774 311 -1155 394 -126 27
-175 30 -223 13z"
          />
          <path
            d="M5471 4792 c-19 -9 -44 -30 -55 -45 -20 -28 -21 -42 -24 -444 -1
-228 1 -413 5 -411 124 62 127 63 211 63 l82 -1 0 366 c0 360 0 366 -22 410
-38 74 -123 101 -197 62z m189 -498 c0 -207 -3 -295 -11 -292 -6 2 -10 7 -10
11 1 4 1 138 1 298 0 191 3 288 10 284 6 -4 10 -115 10 -301z"
          />
          <path
            d="M2295 3671 c-79 -45 -125 -125 -125 -213 0 -43 2 -45 38 -20 49 34
96 47 167 47 84 -1 138 -24 173 -75 20 -29 22 -45 22 -149 1 -131 19 -194 80
-270 43 -56 63 -65 105 -51 31 10 35 16 35 45 0 97 -54 257 -111 328 -28 35
-30 41 -21 81 22 105 -18 209 -106 270 -36 26 -52 30 -124 33 -77 4 -86 2
-133 -26z"
          />
          <path
            d="M9050 3233 c-29 -11 -69 -56 -75 -84 -4 -16 -11 -29 -16 -29 -11 0
-4 -137 9 -171 33 -84 158 -102 223 -33 22 23 24 34 24 117 0 51 4 95 8 98 13
9 -20 66 -48 85 -27 17 -100 28 -125 17z m81 -65 c22 -19 47 -54 32 -44 -10 5
-13 -12 -13 -78 0 -76 -2 -86 -22 -100 -32 -22 -55 -20 -84 9 -14 14 -30 25
-37 26 -9 0 -9 2 1 6 8 3 12 27 12 69 0 55 4 68 27 94 28 32 59 38 84 18z m56
-184 c-3 -3 -12 -4 -19 -1 -8 3 -5 6 6 6 11 1 17 -2 13 -5z"
          />
          <path
            d="M8067 3148 c-4 -46 -7 -125 -7 -175 l0 -93 120 0 120 0 0 30 0 30
-84 0 c-79 0 -84 1 -88 23 -2 12 -2 32 0 45 3 20 9 22 58 22 53 0 54 0 54 30
0 30 -1 30 -54 30 -45 0 -54 3 -59 20 -3 11 -1 20 3 20 5 0 10 10 12 23 3 20
9 22 86 25 80 3 82 3 82 27 l0 25 -119 0 -118 0 -6 -82z"
          />
          <path
            d="M8362 3175 c1 -30 0 -55 -4 -55 -4 0 -7 -54 -7 -120 l0 -120 34 0 35
0 0 75 c0 73 1 75 24 75 16 0 27 -7 31 -20 4 -12 15 -20 28 -20 18 0 19 -2 7
-10 -12 -8 -11 -15 8 -54 20 -41 25 -46 56 -46 l35 0 -19 43 c-10 23 -29 48
-42 54 -13 7 -17 13 -10 13 9 0 11 7 7 20 -5 15 2 27 24 46 18 15 31 35 31 49
0 13 5 25 11 27 16 5 -15 74 -39 87 -12 6 -64 11 -117 11 l-97 0 4 -55z m176
-22 c20 -21 23 -28 12 -31 -8 -3 -21 -13 -28 -24 -9 -13 -26 -18 -56 -18 -39
0 -44 3 -48 25 -3 14 -1 25 3 25 5 0 9 8 9 18 0 26 9 32 47 32 23 0 42 -8 61
-27z"
          />
          <path
            d="M8670 3175 c0 -30 -3 -55 -7 -55 -6 0 -8 -64 -4 -122 1 -5 14 -8 30
-8 20 0 30 6 34 20 3 13 14 20 30 20 21 0 29 -11 58 -75 33 -75 33 -75 72 -75
l39 0 -40 73 -40 73 28 25 c16 13 32 34 35 47 6 20 3 22 -27 22 -22 0 -37 -7
-46 -20 -9 -16 -23 -20 -62 -20 -47 0 -50 2 -50 25 0 14 5 25 10 25 6 0 10 11
10 25 0 23 4 25 40 25 31 0 47 -6 64 -25 29 -31 76 -34 76 -6 0 11 -12 33 -26
50 -26 31 -26 31 -125 31 l-99 0 0 -55z"
          />
          <path
            d="M9286 3182 c0 -26 -4 -53 -9 -59 -6 -8 -7 -58 -2 -128 l7 -115 29 0
29 0 0 76 0 75 26 -3 c28 -3 46 -30 78 -109 14 -35 20 -39 51 -39 19 0 35 2
35 5 0 3 -15 36 -34 73 l-34 67 29 26 c18 17 29 37 29 53 0 14 5 26 11 26 19
0 0 53 -27 78 -22 20 -36 22 -122 22 l-97 0 1 -48z m162 -18 c27 -19 28 -34 2
-62 -16 -16 -32 -22 -67 -22 l-46 0 7 42 c4 22 9 45 12 50 9 14 68 9 92 -8z
m-121 -180 c-3 -3 -12 -4 -19 -1 -8 3 -5 6 6 6 11 1 17 -2 13 -5z"
          />
          <path
            d="M4131 2962 c-30 -15 -75 -47 -100 -70 l-46 -44 42 31 c22 17 72 49
109 71 78 46 75 52 -5 12z"
          />
          <path d="M8660 2930 l0 -50 35 0 35 0 0 50 0 50 -35 0 -35 0 0 -50z" />
          <path d="M3028 2813 c6 -2 18 -2 25 0 6 3 1 5 -13 5 -14 0 -19 -2 -12 -5z" />
          <path
            d="M3335 2710 c3 -5 11 -10 16 -10 6 0 7 5 4 10 -3 6 -11 10 -16 10 -6
0 -7 -4 -4 -10z"
          />
          <path
            d="M5461 2660 c-47 -11 -110 -58 -143 -105 -32 -46 -51 -134 -40 -185 7
-31 4 -40 -33 -85 -63 -79 -125 -236 -125 -320 0 -28 5 -33 37 -43 31 -10 40
-8 64 9 83 59 139 189 139 322 0 98 19 137 83 170 73 37 244 14 288 -39 24
-29 39 -16 39 34 -1 94 -46 170 -126 214 -55 30 -131 41 -183 28z"
          />
        </g>
      </svg>